<?xml version="1.0" standalone="no"?><!DOCTYPE svg PUBLIC "-//W3C//DTD SVG 1.1//EN" "http://www.w3.org/Graphics/SVG/1.1/DTD/svg11.dtd"><svg t="1636787718905" class="icon" viewBox="0 0 1024 1024" version="1.1" xmlns="http://www.w3.org/2000/svg" p-id="1515" xmlns:xlink="http://www.w3.org/1999/xlink" width="108" height="108"><defs><style type="text/css"></style></defs><path d="M960 726.4v179.008a52.608 52.608 0 0 1-14.976 38.08 48.832 48.832 0 0 1-36.672 15.552H115.648a48.64 48.64 0 0 1-36.672-15.552 52.8 52.8 0 0 1-14.976-38.08V726.4c0-14.912 4.928-27.712 14.976-38.016a48.832 48.832 0 0 1 36.672-15.616H345.6c7.552 20.928 20.096 38.016 37.952 51.456 17.792 13.376 37.632 20.096 59.456 20.096h137.856c21.888 0 41.664-6.72 59.52-20.096 17.792-13.44 30.464-30.656 37.952-51.456h229.888a48.64 48.64 0 0 1 36.672 15.616 53.312 53.312 0 0 1 15.104 38.016z m-174.976-362.624c-6.144 14.848-16.64 22.336-31.744 22.336H615.36v250.624c0 9.664-3.328 18.176-10.176 25.152a32.832 32.832 0 0 1-24.192 10.56H443.008a32.256 32.256 0 0 1-24.192-10.56 35.2 35.2 0 0 1-10.24-25.152V386.24H270.72c-14.976 0-25.728-7.488-31.744-22.4a32.512 32.512 0 0 1 7.552-38.592l241.28-250.688A31.232 31.232 0 0 1 512 64c9.728 0 17.792 3.456 24.192 10.56l241.28 250.688a32.832 32.832 0 0 1 7.552 38.528zM743.04 876.8c6.784-7.04 10.176-15.36 10.176-25.152a34.816 34.816 0 0 0-10.24-25.152 32.896 32.896 0 0 0-48.384 0 35.456 35.456 0 0 0-10.176 25.152c0 9.664 3.392 18.176 10.24 25.152a32.64 32.64 0 0 0 24.128 10.56 32.256 32.256 0 0 0 24.256-10.56z m137.856 0c6.848-7.04 10.176-15.36 10.176-25.152a34.816 34.816 0 0 0-10.24-25.152 32.896 32.896 0 0 0-48.32 0 35.456 35.456 0 0 0-10.24 25.152c0 9.664 3.392 18.176 10.24 25.152a32.64 32.64 0 0 0 24.192 10.56 32.448 32.448 0 0 0 24.192-10.56z" fill="#838390" p-id="1516"></path></svg>