<?xml version="1.0" standalone="no"?><!DOCTYPE svg PUBLIC "-//W3C//DTD SVG 1.1//EN" "http://www.w3.org/Graphics/SVG/1.1/DTD/svg11.dtd"><svg t="1636787471537" class="icon" viewBox="0 0 1029 1024" version="1.1" xmlns="http://www.w3.org/2000/svg" p-id="1978" xmlns:xlink="http://www.w3.org/1999/xlink" width="108.52734375" height="108"><defs><style type="text/css"></style></defs><path d="M516.608 51.2c-254.464 0-460.8 206.336-460.8 460.8s206.336 460.8 460.8 460.8 460.8-206.336 460.8-460.8c0-254.976-206.336-460.8-460.8-460.8z m194.048 571.904c0 11.264-8.704 20.992-20.992 20.992h-104.448c-11.264 0-20.992-8.704-20.992-20.992 0-11.264 10.24-20.992 20.992-20.992h104.96c10.752-0.512 20.48 8.704 20.48 20.992z m-199.68-345.6c5.632-11.264 18.944-14.336 29.696-7.68l72.704 43.52c10.24 5.632 14.336 17.408 7.68 28.672l-20.992 35.328-109.568-64.512 20.48-35.328z m-116.736 450.56L322.56 768c-14.336 7.68-32.256-2.56-32.256-17.408l-1.024-81.92c0-3.072 1.024-7.68 3.072-11.264L479.232 332.8l111.104 63.488-186.88 324.608c-2.56 2.56-5.632 5.12-9.216 7.168z m296.96 1.024h-168.96c-11.264 0-20.992-8.704-20.992-20.992 0-11.776 10.24-20.992 20.992-20.992h168.96c11.264 0 20.992 8.704 20.992 20.992 0 11.264-8.704 20.992-20.992 20.992z" p-id="1979"></path></svg>