<?xml version="1.0" standalone="no"?><!DOCTYPE svg PUBLIC "-//W3C//DTD SVG 1.1//EN" "http://www.w3.org/Graphics/SVG/1.1/DTD/svg11.dtd"><svg t="1636786710394" class="icon" viewBox="0 0 1024 1024" version="1.1" xmlns="http://www.w3.org/2000/svg" p-id="4041" xmlns:xlink="http://www.w3.org/1999/xlink" width="108" height="108"><defs><style type="text/css"></style></defs><path d="M704 128a32 32 0 0 1 0 64h-21.333333v160.789333a10.666667 10.666667 0 0 0 1.088 4.693334l180.874666 369.6c28.48 58.218667 4.384 128.490667-53.813333 156.970666A117.333333 117.333333 0 0 1 759.242667 896H264.746667c-64.8 0-117.333333-52.533333-117.333334-117.333333a117.333333 117.333333 0 0 1 11.946667-51.573334l180.874667-369.621333a10.666667 10.666667 0 0 0 1.088-4.693333V192h-21.333334a32 32 0 0 1-31.946666-30.122667L288 160a32 32 0 0 1 32-32z m51.968 522.666667H268.010667l-51.157334 104.554666A53.333333 53.333333 0 0 0 264.757333 832H759.253333a53.333333 53.333333 0 0 0 47.893334-76.778667L755.978667 650.666667zM618.666667 192H405.333333v160.789333a74.666667 74.666667 0 0 1-7.594666 32.821334L299.328 586.666667h425.322667l-98.389334-201.066667A74.666667 74.666667 0 0 1 618.666667 352.8V192z" p-id="4042"></path></svg>