<?xml version="1.0" standalone="no"?><!DOCTYPE svg PUBLIC "-//W3C//DTD SVG 1.1//EN" "http://www.w3.org/Graphics/SVG/1.1/DTD/svg11.dtd"><svg t="1636787587642" class="icon" viewBox="0 0 1024 1024" version="1.1" xmlns="http://www.w3.org/2000/svg" p-id="4909" xmlns:xlink="http://www.w3.org/1999/xlink" width="108" height="108"><defs><style type="text/css"></style></defs><path d="M319.99 960.01c-13.79 0-26.52-8.99-30.66-22.88C242.05 778.28 74.44 599.77 72.75 597.99A31.995 31.995 0 0 1 64 576V256.27C64 220.83 92.83 192 128.27 192c1.02 0 2.03 0 3.03-0.01 13.7-0.05 30.74-0.11 46.85 10.11 21.11 13.39 29.55 38 34.06 55.43l53.67 198.42c2.16-1.18 4.39-2.27 6.7-3.26 27.46-11.76 58.68-6.45 80.64 13.4l176.07 112.97A32.037 32.037 0 0 1 544 606v194c0 17.67-14.33 32-32 32s-32-14.33-32-32V623.49L316.13 518.35a32.075 32.075 0 0 1-5.35-4.31c-4.93-4.93-10.27-3.69-13.02-2.51-2.75 1.18-7.34 4.19-7.17 11.16 0.06 2.61 0.98 5.11 2.61 7.13l72.63 67.78c12.83 11.98 13.62 32.05 1.77 45-11.85 12.95-31.92 13.93-44.98 2.21l-88-79c-4.6-4.13-7.9-9.49-9.51-15.46l-74.73-276.29c-0.03-0.12-0.06-0.24-0.1-0.37-2.88-11.18-5.43-15.76-6.5-17.33-2.61-0.41-8.11-0.39-12.26-0.37-1.07 0-2.15 0.01-3.25 0.01-0.15 0-0.27 0.12-0.27 0.27v307.25c15.43 17.05 49.3 55.7 86.94 106.4 68.26 91.92 113.92 175.68 135.73 248.95 5.04 16.94-4.6 34.76-21.54 39.8-3.05 0.91-6.12 1.34-9.14 1.34z" p-id="4910"></path><path d="M704.01 960.01c-3.02 0-6.1-0.43-9.14-1.34-16.94-5.04-26.58-22.86-21.54-39.8 21.81-73.27 67.47-157.02 135.73-248.95 37.65-50.7 71.51-89.35 86.94-106.4V256.27c0-0.15-0.12-0.27-0.27-0.27-6.7 0-10.35 0.49-12.21 1.63-1.22 0.75-5.48 4.19-10.2 17.53l-74.44 275.2a32.059 32.059 0 0 1-9.51 15.46l-88 79c-13.06 11.73-33.13 10.74-44.98-2.21-11.85-12.95-11.06-33.02 1.77-45l72.63-67.78c1.63-2.02 2.55-4.53 2.61-7.13 0.17-6.96-4.42-9.98-7.17-11.16-2.75-1.18-8.1-2.42-13.02 2.51a32.174 32.174 0 0 1-5.35 4.31L544 623.49V800c0 17.67-14.33 32-32 32s-32-14.33-32-32V606c0-10.9 5.55-21.05 14.72-26.93L670.78 466.1c21.96-19.85 53.18-25.16 80.64-13.4 2.3 0.99 4.54 2.07 6.7 3.26l53.72-198.6c0.18-0.68 0.39-1.35 0.62-2.02 8.53-24.9 20.85-42 37.63-52.29 15.9-9.74 31.99-11.05 45.64-11.05 35.44 0 64.27 28.83 64.27 64.27V576c0 8.18-3.13 16.05-8.75 21.99-1.68 1.78-169.38 180.56-216.58 339.14-4.13 13.89-16.87 22.88-30.66 22.88zM512 342c-44.11 0-80-35.89-80-80s35.89-80 80-80 80 35.89 80 80-35.89 80-80 80z m0-96c-8.82 0-16 7.18-16 16s7.18 16 16 16 16-7.18 16-16-7.18-16-16-16z" p-id="4911"></path><path d="M559.17 460a31.98 31.98 0 0 1-17.51-5.22 31.976 31.976 0 0 1-14.19-22.43c-1.05-7.67-7.7-13.45-15.47-13.45s-14.41 5.78-15.47 13.45a31.994 31.994 0 0 1-40.43 26.43c-32.34-9.17-62.26-26.46-86.52-50.01-6.65-6.45-10.17-15.46-9.67-24.71s4.99-17.82 12.31-23.51c6.1-4.74 7.77-13.39 3.9-20.1-3.88-6.72-12.21-9.59-19.37-6.67a32.015 32.015 0 0 1-43.12-21.84c-4.09-16.27-6.16-33.08-6.16-49.94s2.07-33.66 6.16-49.94a32.015 32.015 0 0 1 43.12-21.84c7.16 2.92 15.49 0.05 19.37-6.67 3.88-6.72 2.2-15.36-3.9-20.11-7.31-5.69-11.8-14.26-12.31-23.51s3.02-18.26 9.67-24.71c24.26-23.54 54.18-40.83 86.52-50.01 8.91-2.53 18.49-1.07 26.24 4s12.93 13.25 14.19 22.43c1.05 7.67 7.7 13.45 15.47 13.45s14.41-5.78 15.47-13.45a31.994 31.994 0 0 1 40.43-26.43c32.34 9.17 62.26 26.46 86.52 50.01 6.65 6.45 10.17 15.46 9.67 24.71s-4.99 17.82-12.31 23.51c-6.1 4.74-7.77 13.39-3.9 20.1 3.88 6.72 12.21 9.59 19.37 6.67a32.015 32.015 0 0 1 43.12 21.84c4.09 16.27 6.16 33.08 6.16 49.94s-2.07 33.66-6.16 49.94a32.015 32.015 0 0 1-43.12 21.84c-7.16-2.92-15.49-0.05-19.37 6.67-3.88 6.72-2.2 15.36 3.9 20.1 7.31 5.69 11.8 14.26 12.31 23.51s-3.02 18.26-9.67 24.71c-24.26 23.54-54.18 40.83-86.52 50.01-2.87 0.83-5.81 1.23-8.73 1.23zM512 354.9c25.85 0 49.28 12.6 63.93 32.26 4.28-2.2 8.46-4.61 12.51-7.24-9.7-22.51-8.89-49.1 4.03-71.47 12.92-22.38 35.55-36.37 59.89-39.23a144.76 144.76 0 0 0 0-14.46c-24.34-2.86-46.96-16.84-59.89-39.23-12.92-22.37-13.72-48.96-4.03-71.47-4.04-2.63-8.22-5.05-12.51-7.24-14.64 19.66-38.07 32.26-63.93 32.26s-49.28-12.6-63.93-32.26c-4.28 2.2-8.46 4.61-12.51 7.24 9.7 22.51 8.89 49.1-4.03 71.47-12.92 22.38-35.55 36.37-59.89 39.23a144.76 144.76 0 0 0 0 14.46c24.34 2.86 46.97 16.84 59.89 39.23 12.92 22.37 13.72 48.96 4.03 71.47 4.05 2.63 8.22 5.05 12.51 7.24 14.65-19.65 38.08-32.26 63.93-32.26z" p-id="4912"></path></svg>